<?xml version="1.0" encoding="UTF-8" standalone="no"?>
<!-- Created with Inkscape (http://www.inkscape.org/) -->

<svg
   xmlns:dc="http://purl.org/dc/elements/1.1/"
   xmlns:cc="http://creativecommons.org/ns#"
   xmlns:rdf="http://www.w3.org/1999/02/22-rdf-syntax-ns#"
   xmlns:svg="http://www.w3.org/2000/svg"
   xmlns="http://www.w3.org/2000/svg"
   xmlns:sodipodi="http://sodipodi.sourceforge.net/DTD/sodipodi-0.dtd"
   xmlns:inkscape="http://www.inkscape.org/namespaces/inkscape"
   width="6.2097631mm"
   height="6.957972mm"
   viewBox="0 0 6.2097631 6.957972"
   version="1.1"
   id="svg834"
   inkscape:version="0.92.4 (5da689c313, 2019-01-14)"
   sodipodi:docname="Cooler.svg">
  <defs
     id="defs828" />
  <sodipodi:namedview
     id="base"
     pagecolor="#ffffff"
     bordercolor="#666666"
     borderopacity="1.0"
     inkscape:pageopacity="0.0"
     inkscape:pageshadow="2"
     inkscape:zoom="0.35"
     inkscape:cx="328.87784"
     inkscape:cy="-235.4225"
     inkscape:document-units="mm"
     inkscape:current-layer="layer1"
     showgrid="false"
     fit-margin-top="0"
     fit-margin-left="0"
     fit-margin-right="0"
     fit-margin-bottom="0"
     inkscape:window-width="1304"
     inkscape:window-height="745"
     inkscape:window-x="-8"
     inkscape:window-y="-8"
     inkscape:window-maximized="1" />
  <metadata
     id="metadata831">
    <rdf:RDF>
      <cc:Work
         rdf:about="">
        <dc:format>image/svg+xml</dc:format>
        <dc:type
           rdf:resource="http://purl.org/dc/dcmitype/StillImage" />
        <dc:title></dc:title>
      </cc:Work>
    </rdf:RDF>
  </metadata>
  <g
     inkscape:label="Layer 1"
     inkscape:groupmode="layer"
     id="layer1"
     transform="translate(-18.817737,-79.58649)">
    <g
       id="use29930"
       transform="matrix(0.26458333,0,0,0.26458333,15.449143,40.948477)">
      <desc
         id="desc848">Cooler</desc>
      <title
         id="title850">Cooler</title>
      <path
         inkscape:connector-curvature="0"
         id="path852"
         style="fill:#ffffff;fill-opacity:1;fill-rule:evenodd;stroke:none;stroke-width:0.66862381"
         d="m 12.968678,159.18366 c 0,-5.83167 4.727229,-10.55964 10.559596,-10.55964 5.831627,0 10.559615,4.72797 10.559615,10.55964 0,5.83227 -4.727988,10.55957 -10.559615,10.55957 -5.832367,0 -10.559596,-4.7273 -10.559596,-10.55957 z" />
      <g
         style="stroke-width:0.91540313"
         transform="matrix(0.73041461,0,0,0.73041461,-222.05687,-1910.6315)"
         id="g856">
        <path
           inkscape:connector-curvature="0"
           id="path854"
           style="fill:none;stroke:#000000;stroke-width:0.64879197;stroke-linecap:butt;stroke-linejoin:miter;stroke-miterlimit:10;stroke-dasharray:none;stroke-opacity:1"
           d="m 321.77,2833.754 c 0,-7.984 6.472,-14.457 14.457,-14.457 7.984,0 14.457,6.473 14.457,14.457 0,7.984 -6.473,14.457 -14.457,14.457 -7.985,0 -14.457,-6.473 -14.457,-14.457 z m 31.808,-8.676 h -14.457 v 5.781 h 5.781 v 5.786 h -5.781 v 5.781 h 14.457 m -26.023,-26.676 v 36.004" />
      </g>
    </g>
  </g>
</svg>
