<?xml version="1.0" encoding="UTF-8" standalone="no"?>
<!-- Created with Inkscape (http://www.inkscape.org/) -->

<svg
   xmlns:dc="http://purl.org/dc/elements/1.1/"
   xmlns:cc="http://creativecommons.org/ns#"
   xmlns:rdf="http://www.w3.org/1999/02/22-rdf-syntax-ns#"
   xmlns:svg="http://www.w3.org/2000/svg"
   xmlns="http://www.w3.org/2000/svg"
   xmlns:sodipodi="http://sodipodi.sourceforge.net/DTD/sodipodi-0.dtd"
   xmlns:inkscape="http://www.inkscape.org/namespaces/inkscape"
   width="9.9816065mm"
   height="9.943635mm"
   viewBox="0 0 9.9816067 9.9436352"
   version="1.1"
   id="svg2767"
   inkscape:version="0.92.4 (5da689c313, 2019-01-14)"
   sodipodi:docname="drawing.svg">
  <defs
     id="defs2761" />
  <sodipodi:namedview
     id="base"
     pagecolor="#ffffff"
     bordercolor="#666666"
     borderopacity="1.0"
     inkscape:pageopacity="0.0"
     inkscape:pageshadow="2"
     inkscape:zoom="7.919596"
     inkscape:cx="13.062905"
     inkscape:cy="22.0457"
     inkscape:document-units="mm"
     inkscape:current-layer="g49"
     showgrid="false"
     inkscape:window-width="1304"
     inkscape:window-height="745"
     inkscape:window-x="-8"
     inkscape:window-y="-8"
     inkscape:window-maximized="1"
     showguides="false" />
  <metadata
     id="metadata2764">
    <rdf:RDF>
      <cc:Work
         rdf:about="">
        <dc:format>image/svg+xml</dc:format>
        <dc:type
           rdf:resource="http://purl.org/dc/dcmitype/StillImage" />
        <dc:title />
      </cc:Work>
    </rdf:RDF>
  </metadata>
  <g
     inkscape:groupmode="layer"
     id="layer2"
     inkscape:label="Layer 2"
     transform="translate(-0.41838912,-13.357628)" />
  <g
     inkscape:label="Layer 1"
     inkscape:groupmode="layer"
     id="layer1"
     transform="translate(-76.939495,-126.32289)">
    <rect
       style="opacity:1;fill:none;stroke-width:0.26458332"
       id="rect2304"
       width="2.0713389"
       height="6.8821902"
       x="79.461067"
       y="113.98641" />
    <g
       id="g49"
       transform="translate(0.03340926,0.16704328)">
      <g
         id="g108"
         transform="translate(0.50113036,2.80633)">
        <g
           id="g37"
           transform="translate(0.00828893,-0.01652711)">
          <g
             transform="matrix(0.47926657,0,0,0.48907864,39.786706,68.117144)"
             id="g2330">
            <rect
               style="opacity:1;fill:#1a6400;fill-opacity:1;stroke-width:0.26458332"
               id="rect2306"
               width="4.3431334"
               height="7.5503602"
               x="84.606003"
               y="118.9309" />
            <ellipse
               id="path1954"
               cx="86.800888"
               cy="123.13095"
               rx="10.281127"
               ry="10.033389"
               style="opacity:1;fill:none;fill-opacity:1;stroke:#000000;stroke-width:0.26458332;stroke-opacity:1" />
          </g>
          <rect
             style="fill:#ff0000;stroke-width:0.26458332"
             y="124.58078"
             x="79.680328"
             height="1.1339285"
             width="3.29548"
             id="rect12" />
          <circle
             r="1.3347285"
             cy="129.56535"
             cx="84.180618"
             id="path14"
             style="fill:#0000ff;stroke-width:0.26458332" />
          <ellipse
             ry="0.9567523"
             rx="0.93312877"
             cy="131.26625"
             cx="79.420479"
             id="path14-5"
             style="fill:#aa8800;stroke-width:0.18730099" />
        </g>
        <path
           style="fill:none"
           d="M 16.415231,36.884915 C 13.12043,36.444215 9.8293912,35.018246 7.2582708,32.917307 0.74639863,27.596264 -1.3155004,18.489608 2.2962549,11.001893 3.2967218,8.9277735 4.2889205,7.532716 5.9176321,5.9101408 9.1111146,2.7286903 12.991905,0.95901921 17.59023,0.58734296 c 1.497153,-0.12101273 3.183187,-0.0200579 4.765856,0.28536562 6.50551,1.25543392 11.85157,5.95569072 13.91855,12.23719042 1.135792,3.451642 1.224381,6.977222 0.264493,10.525923 -0.616445,2.27899 -1.866264,4.705807 -3.402702,6.607142 -0.641814,0.794242 -2.261781,2.383915 -3.015839,2.959442 -2.692081,2.054703 -5.957027,3.37039 -9.259874,3.731483 -1.169125,0.127819 -3.299169,0.104353 -4.445483,-0.04897 z m -3.870816,-3.566024 c 0.89893,-0.252602 1.896667,-1.23717 2.233829,-2.204344 0.114624,-0.328809 0.163773,-0.725758 0.163773,-1.322703 0,-0.80627 -0.01839,-0.890105 -0.336239,-1.533181 -0.388114,-0.785222 -0.957307,-1.352623 -1.744814,-1.739316 -0.453527,-0.222699 -0.604338,-0.249563 -1.40109,-0.249579 -0.7862,-1.6e-5 -0.955101,0.02914 -1.413918,0.244089 -0.7289978,0.341521 -1.1924872,0.73407 -1.5864865,1.343664 -0.905007,1.400221 -0.7346327,3.294162 0.4060349,4.513628 0.9551502,1.021133 2.2399096,1.352106 3.6789106,0.947742 z m 18.241148,-5.008184 c 0.849083,-0.238395 1.5321,-0.646825 2.202057,-1.316783 0.991235,-0.991234 1.48688,-2.150874 1.49254,-3.492031 0.0061,-1.448961 -0.48557,-2.654366 -1.490576,-3.654267 -1.987479,-1.977384 -5.173189,-1.978046 -7.149749,-0.0015 -2.249055,2.249053 -1.881736,6.033302 0.756636,7.795138 1.256097,0.83879 2.740833,1.076056 4.189092,0.66943 z M 22.754517,18.009893 v -7.0545 l -3.950893,0.02325 -3.950893,0.02325 -0.02308,6.919643 c -0.01269,3.805803 -0.0039,6.969866 0.01952,7.03125 0.03319,0.08695 0.911115,0.111607 3.973972,0.111607 h 3.931373 z M 24.897374,6.7161788 v -2.1875 h -6.25 -6.25 v 2.1875 2.1874999 h 6.25 6.25 z"
           id="path39"
           inkscape:connector-curvature="0"
           transform="matrix(0.26458333,0,0,0.26458333,76.396666,123.36604)" />
        <path
           style="fill:none;stroke-width:0.08928572"
           d="M 16.995589,36.968685 C 10.662498,36.182817 5.4892391,32.696891 2.6304532,27.288944 0.38974716,23.050215 -0.08283395,18.004193 1.332248,13.427253 3.2974095,7.0711365 8.6439905,2.2345429 15.17195,0.90766049 21.426403,-0.36362831 27.84823,1.6597947 32.212669,6.2769395 36.848662,11.181361 38.386659,18.107554 36.265563,24.528679 34.049035,31.238705 27.957625,36.17281 20.95,36.934446 c -0.806628,0.08767 -3.346599,0.109662 -3.954411,0.03424 z M 12.863273,33.17233 c 1.068354,-0.498672 1.843476,-1.531515 2.049052,-2.730342 0.274783,-1.602413 -0.556579,-3.181103 -2.047027,-3.887137 -0.545709,-0.258506 -0.681151,-0.285101 -1.451944,-0.285101 -0.781123,0 -0.898603,0.02388 -1.4480288,0.294363 -2.5521693,1.256429 -2.792785,4.83808 -0.4270098,6.356193 0.6655006,0.427051 1.0943236,0.536184 2.0108446,0.511749 0.654499,-0.01745 0.898283,-0.06563 1.314113,-0.259725 z m 17.872235,-4.858295 c 0.804091,-0.194614 1.549904,-0.636756 2.242685,-1.329538 1.044421,-1.044421 1.47374,-2.103284 1.471558,-3.62942 -0.0027,-1.914575 -1.080292,-3.623012 -2.807789,-4.451682 -0.902274,-0.432816 -1.62925,-0.576395 -2.579051,-0.509366 -1.327056,0.09365 -2.405409,0.61737 -3.349722,1.626843 -1.842584,1.969728 -1.789057,5.035058 0.121685,6.968562 1.297239,1.312693 3.022789,1.779094 4.900634,1.324601 z M 22.754517,17.966179 V 10.95725 h -3.928571 -3.928572 l -0.0021,4.486607 c -0.0012,2.467634 -0.02627,4.835515 -0.05575,5.261957 -0.02948,0.426443 -0.02413,1.561488 0.0119,2.522322 l 0.0655,1.746971 H 18.8357 22.754517 Z M 24.897374,6.7161788 v -2.1875 h -6.25 -6.25 v 2.1875 2.1874999 h 6.25 6.25 z"
           id="path41"
           inkscape:connector-curvature="0"
           transform="matrix(0.26458333,0,0,0.26458333,76.396666,123.36604)" />
        <path
           style="fill:none;stroke-width:0.08928572"
           d="M 15.92416,36.766104 C 7.7364828,35.310991 1.7112546,29.052958 0.70566486,20.959592 0.56586818,19.834456 0.58930199,17.338876 0.75001468,16.236566 1.7542227,9.348817 6.6124587,3.6073951 13.249296,1.4650223 c 1.871169,-0.60401406 3.566827,-0.86491493 5.621293,-0.86491493 2.148086,0 3.810212,0.2679675 5.829569,0.93984163 4.671706,1.5543549 8.584813,5.0162461 10.695196,9.461944 1.195026,2.517425 1.734163,4.927594 1.734163,7.752451 0,2.114849 -0.257771,3.757195 -0.896831,5.714025 -2.103797,6.441911 -7.890079,11.32481 -14.622621,12.339661 -1.263257,0.190422 -4.513375,0.166456 -5.685905,-0.04193 z m -2.980177,-3.600932 c 0.282434,-0.138182 0.701186,-0.457506 0.963037,-0.734375 1.796982,-1.900043 1.283183,-4.767499 -1.060501,-5.918536 -0.441996,-0.217075 -0.592119,-0.242511 -1.431288,-0.242511 -0.863798,0 -0.979367,0.02106 -1.4700505,0.267857 -2.2163897,1.114777 -2.7719601,4.086134 -1.0910261,5.835133 0.8188297,0.851986 1.4287876,1.0917 2.6961256,1.059582 0.765532,-0.0194 0.965776,-0.05778 1.393703,-0.26715 z m 17.416343,-4.74723 c 1.039254,-0.185331 1.775802,-0.588269 2.617671,-1.432033 1.093399,-1.095858 1.469982,-1.999579 1.471889,-3.532221 0.0019,-1.500993 -0.42062,-2.560795 -1.426581,-3.578557 -0.9685,-0.979859 -2.217456,-1.507167 -3.569806,-1.507167 -1.431639,0 -2.44663,0.408915 -3.496924,1.408822 -1.090055,1.037761 -1.594915,2.188657 -1.594915,3.635821 0,2.791053 2.199571,5.063873 4.955357,5.120376 0.196429,0.004 0.665918,-0.04774 1.043309,-0.115041 z M 22.754517,17.966179 V 10.95725 h -3.914015 -3.914016 l -0.0592,4.032515 c -0.07486,5.099453 -0.07557,8.7311 -0.0018,9.436531 l 0.05736,0.548811 h 3.915853 3.915851 V 17.966179 Z M 24.897374,6.7161788 v -2.1875 h -6.25 -6.25 v 2.1875 2.1874999 h 6.25 6.25 z"
           id="path43"
           inkscape:connector-curvature="0"
           transform="matrix(0.26458333,0,0,0.26458333,76.396666,123.36604)" />
        <path
           style="fill:none;stroke-width:0.08928572"
           d="M 15.92416,36.766104 C 7.7364828,35.310991 1.7112546,29.052958 0.70566486,20.959592 0.56586818,19.834456 0.58930199,17.338876 0.75001468,16.236566 1.7542227,9.348817 6.6124587,3.6073951 13.249296,1.4650223 c 1.871169,-0.60401406 3.566827,-0.86491493 5.621293,-0.86491493 2.148086,0 3.810212,0.2679675 5.829569,0.93984163 4.671706,1.5543549 8.584813,5.0162461 10.695196,9.461944 1.195026,2.517425 1.734163,4.927594 1.734163,7.752451 0,2.114849 -0.257771,3.757195 -0.896831,5.714025 -2.103797,6.441911 -7.890079,11.32481 -14.622621,12.339661 -1.263257,0.190422 -4.513375,0.166456 -5.685905,-0.04193 z m -2.980177,-3.600932 c 0.282434,-0.138182 0.701186,-0.457506 0.963037,-0.734375 1.796982,-1.900043 1.283183,-4.767499 -1.060501,-5.918536 -0.441996,-0.217075 -0.592119,-0.242511 -1.431288,-0.242511 -0.863798,0 -0.979367,0.02106 -1.4700505,0.267857 -2.2163897,1.114777 -2.7719601,4.086134 -1.0910261,5.835133 0.8188297,0.851986 1.4287876,1.0917 2.6961256,1.059582 0.765532,-0.0194 0.965776,-0.05778 1.393703,-0.26715 z m 17.416343,-4.74723 c 1.039254,-0.185331 1.775802,-0.588269 2.617671,-1.432033 1.093399,-1.095858 1.469982,-1.999579 1.471889,-3.532221 0.0019,-1.500993 -0.42062,-2.560795 -1.426581,-3.578557 -0.9685,-0.979859 -2.217456,-1.507167 -3.569806,-1.507167 -1.431639,0 -2.44663,0.408915 -3.496924,1.408822 -1.090055,1.037761 -1.594915,2.188657 -1.594915,3.635821 0,2.791053 2.199571,5.063873 4.955357,5.120376 0.196429,0.004 0.665918,-0.04774 1.043309,-0.115041 z M 22.754517,17.966179 V 10.95725 h -3.914015 -3.914016 l -0.0592,4.032515 c -0.07486,5.099453 -0.07557,8.7311 -0.0018,9.436531 l 0.05736,0.548811 h 3.915853 3.915851 V 17.966179 Z M 24.897374,6.7161788 v -2.1875 h -6.25 -6.25 v 2.1875 2.1874999 h 6.25 6.25 z"
           id="path45"
           inkscape:connector-curvature="0"
           transform="matrix(0.26458333,0,0,0.26458333,76.396666,123.36604)" />
        <path
           style="fill:none;stroke-width:0.08928572"
           d="M 15.92416,36.766104 C 7.7364828,35.310991 1.7112546,29.052958 0.70566486,20.959592 0.56586818,19.834456 0.58930199,17.338876 0.75001468,16.236566 1.7542227,9.348817 6.6124587,3.6073951 13.249296,1.4650223 c 1.871169,-0.60401406 3.566827,-0.86491493 5.621293,-0.86491493 2.148086,0 3.810212,0.2679675 5.829569,0.93984163 4.671706,1.5543549 8.584813,5.0162461 10.695196,9.461944 1.195026,2.517425 1.734163,4.927594 1.734163,7.752451 0,2.114849 -0.257771,3.757195 -0.896831,5.714025 -2.103797,6.441911 -7.890079,11.32481 -14.622621,12.339661 -1.263257,0.190422 -4.513375,0.166456 -5.685905,-0.04193 z m -2.980177,-3.600932 c 0.282434,-0.138182 0.701186,-0.457506 0.963037,-0.734375 1.796982,-1.900043 1.283183,-4.767499 -1.060501,-5.918536 -0.441996,-0.217075 -0.592119,-0.242511 -1.431288,-0.242511 -0.863798,0 -0.979367,0.02106 -1.4700505,0.267857 -2.2163897,1.114777 -2.7719601,4.086134 -1.0910261,5.835133 0.8188297,0.851986 1.4287876,1.0917 2.6961256,1.059582 0.765532,-0.0194 0.965776,-0.05778 1.393703,-0.26715 z m 17.416343,-4.74723 c 1.039254,-0.185331 1.775802,-0.588269 2.617671,-1.432033 1.093399,-1.095858 1.469982,-1.999579 1.471889,-3.532221 0.0019,-1.500993 -0.42062,-2.560795 -1.426581,-3.578557 -0.9685,-0.979859 -2.217456,-1.507167 -3.569806,-1.507167 -1.431639,0 -2.44663,0.408915 -3.496924,1.408822 -1.090055,1.037761 -1.594915,2.188657 -1.594915,3.635821 0,2.791053 2.199571,5.063873 4.955357,5.120376 0.196429,0.004 0.665918,-0.04774 1.043309,-0.115041 z M 22.754517,17.966179 V 10.95725 h -3.914015 -3.914016 l -0.0592,4.032515 c -0.07486,5.099453 -0.07557,8.7311 -0.0018,9.436531 l 0.05736,0.548811 h 3.915853 3.915851 V 17.966179 Z M 24.897374,6.7161788 v -2.1875 h -6.25 -6.25 v 2.1875 2.1874999 h 6.25 6.25 z"
           id="path47"
           inkscape:connector-curvature="0"
           transform="matrix(0.26458333,0,0,0.26458333,76.396666,123.36604)" />
        <path
           style="fill:none;stroke-width:0.08928572"
           d="M 15.92416,36.766104 C 7.7364828,35.310991 1.7112546,29.052958 0.70566486,20.959592 0.56586818,19.834456 0.58930199,17.338876 0.75001468,16.236566 1.7542227,9.348817 6.6124587,3.6073951 13.249296,1.4650223 c 1.871169,-0.60401406 3.566827,-0.86491493 5.621293,-0.86491493 2.148086,0 3.810212,0.2679675 5.829569,0.93984163 4.671706,1.5543549 8.584813,5.0162461 10.695196,9.461944 1.195026,2.517425 1.734163,4.927594 1.734163,7.752451 0,2.114849 -0.257771,3.757195 -0.896831,5.714025 -2.103797,6.441911 -7.890079,11.32481 -14.622621,12.339661 -1.263257,0.190422 -4.513375,0.166456 -5.685905,-0.04193 z m -2.980177,-3.600932 c 0.282434,-0.138182 0.701186,-0.457506 0.963037,-0.734375 1.796982,-1.900043 1.283183,-4.767499 -1.060501,-5.918536 -0.441996,-0.217075 -0.592119,-0.242511 -1.431288,-0.242511 -0.863798,0 -0.979367,0.02106 -1.4700505,0.267857 -2.2163897,1.114777 -2.7719601,4.086134 -1.0910261,5.835133 0.8188297,0.851986 1.4287876,1.0917 2.6961256,1.059582 0.765532,-0.0194 0.965776,-0.05778 1.393703,-0.26715 z m 17.416343,-4.74723 c 1.039254,-0.185331 1.775802,-0.588269 2.617671,-1.432033 1.093399,-1.095858 1.469982,-1.999579 1.471889,-3.532221 0.0019,-1.500993 -0.42062,-2.560795 -1.426581,-3.578557 -0.9685,-0.979859 -2.217456,-1.507167 -3.569806,-1.507167 -1.431639,0 -2.44663,0.408915 -3.496924,1.408822 -1.090055,1.037761 -1.594915,2.188657 -1.594915,3.635821 0,2.791053 2.199571,5.063873 4.955357,5.120376 0.196429,0.004 0.665918,-0.04774 1.043309,-0.115041 z M 22.754517,17.966179 V 10.95725 h -3.914015 -3.914016 l -0.0592,4.032515 c -0.07486,5.099453 -0.07557,8.7311 -0.0018,9.436531 l 0.05736,0.548811 h 3.915853 3.915851 V 17.966179 Z M 24.897374,6.7161788 v -2.1875 h -6.25 -6.25 v 2.1875 2.1874999 h 6.25 6.25 z"
           id="path49"
           inkscape:connector-curvature="0"
           transform="matrix(0.26458333,0,0,0.26458333,76.396666,123.36604)" />
        <path
           style="fill:none;stroke-width:0.08928572"
           d="M 15.92416,36.766104 C 7.7364828,35.310991 1.7112546,29.052958 0.70566486,20.959592 0.56586818,19.834456 0.58930199,17.338876 0.75001468,16.236566 1.7542227,9.348817 6.6124587,3.6073951 13.249296,1.4650223 c 1.871169,-0.60401406 3.566827,-0.86491493 5.621293,-0.86491493 2.148086,0 3.810212,0.2679675 5.829569,0.93984163 4.671706,1.5543549 8.584813,5.0162461 10.695196,9.461944 1.195026,2.517425 1.734163,4.927594 1.734163,7.752451 0,2.114849 -0.257771,3.757195 -0.896831,5.714025 -2.103797,6.441911 -7.890079,11.32481 -14.622621,12.339661 -1.263257,0.190422 -4.513375,0.166456 -5.685905,-0.04193 z m -2.980177,-3.600932 c 0.282434,-0.138182 0.701186,-0.457506 0.963037,-0.734375 1.796982,-1.900043 1.283183,-4.767499 -1.060501,-5.918536 -0.441996,-0.217075 -0.592119,-0.242511 -1.431288,-0.242511 -0.863798,0 -0.979367,0.02106 -1.4700505,0.267857 -2.2163897,1.114777 -2.7719601,4.086134 -1.0910261,5.835133 0.8188297,0.851986 1.4287876,1.0917 2.6961256,1.059582 0.765532,-0.0194 0.965776,-0.05778 1.393703,-0.26715 z m 17.416343,-4.74723 c 1.039254,-0.185331 1.775802,-0.588269 2.617671,-1.432033 1.093399,-1.095858 1.469982,-1.999579 1.471889,-3.532221 0.0019,-1.500993 -0.42062,-2.560795 -1.426581,-3.578557 -0.9685,-0.979859 -2.217456,-1.507167 -3.569806,-1.507167 -1.431639,0 -2.44663,0.408915 -3.496924,1.408822 -1.090055,1.037761 -1.594915,2.188657 -1.594915,3.635821 0,2.791053 2.199571,5.063873 4.955357,5.120376 0.196429,0.004 0.665918,-0.04774 1.043309,-0.115041 z M 22.754517,17.966179 V 10.95725 h -3.914015 -3.914016 l -0.0592,4.032515 c -0.07486,5.099453 -0.07557,8.7311 -0.0018,9.436531 l 0.05736,0.548811 h 3.915853 3.915851 V 17.966179 Z M 24.897374,6.7161788 v -2.1875 h -6.25 -6.25 v 2.1875 2.1874999 h 6.25 6.25 z"
           id="path51"
           inkscape:connector-curvature="0"
           transform="matrix(0.26458333,0,0,0.26458333,76.396666,123.36604)" />
        <path
           style="fill:none;stroke-width:0.08928572"
           d="M 15.92416,36.766104 C 7.7364828,35.310991 1.7112546,29.052958 0.70566486,20.959592 0.56586818,19.834456 0.58930199,17.338876 0.75001468,16.236566 1.7542227,9.348817 6.6124587,3.6073951 13.249296,1.4650223 c 1.871169,-0.60401406 3.566827,-0.86491493 5.621293,-0.86491493 2.148086,0 3.810212,0.2679675 5.829569,0.93984163 4.671706,1.5543549 8.584813,5.0162461 10.695196,9.461944 1.195026,2.517425 1.734163,4.927594 1.734163,7.752451 0,2.114849 -0.257771,3.757195 -0.896831,5.714025 -2.103797,6.441911 -7.890079,11.32481 -14.622621,12.339661 -1.263257,0.190422 -4.513375,0.166456 -5.685905,-0.04193 z m -2.980177,-3.600932 c 0.282434,-0.138182 0.701186,-0.457506 0.963037,-0.734375 1.796982,-1.900043 1.283183,-4.767499 -1.060501,-5.918536 -0.441996,-0.217075 -0.592119,-0.242511 -1.431288,-0.242511 -0.863798,0 -0.979367,0.02106 -1.4700505,0.267857 -2.2163897,1.114777 -2.7719601,4.086134 -1.0910261,5.835133 0.8188297,0.851986 1.4287876,1.0917 2.6961256,1.059582 0.765532,-0.0194 0.965776,-0.05778 1.393703,-0.26715 z m 17.416343,-4.74723 c 1.039254,-0.185331 1.775802,-0.588269 2.617671,-1.432033 1.093399,-1.095858 1.469982,-1.999579 1.471889,-3.532221 0.0019,-1.500993 -0.42062,-2.560795 -1.426581,-3.578557 -0.9685,-0.979859 -2.217456,-1.507167 -3.569806,-1.507167 -1.431639,0 -2.44663,0.408915 -3.496924,1.408822 -1.090055,1.037761 -1.594915,2.188657 -1.594915,3.635821 0,2.791053 2.199571,5.063873 4.955357,5.120376 0.196429,0.004 0.665918,-0.04774 1.043309,-0.115041 z M 22.754517,17.966179 V 10.95725 h -3.914015 -3.914016 l -0.0592,4.032515 c -0.07486,5.099453 -0.07557,8.7311 -0.0018,9.436531 l 0.05736,0.548811 h 3.915853 3.915851 V 17.966179 Z M 24.897374,6.7161788 v -2.1875 h -6.25 -6.25 v 2.1875 2.1874999 h 6.25 6.25 z"
           id="path53"
           inkscape:connector-curvature="0"
           transform="matrix(0.26458333,0,0,0.26458333,76.396666,123.36604)" />
        <path
           style="fill:none;stroke-width:0.03156727"
           d="m 14.9101,17.994777 v -6.960583 h 3.914341 3.914341 v 6.960583 6.960582 H 18.824441 14.9101 Z"
           id="path55"
           inkscape:connector-curvature="0"
           transform="matrix(0.26458333,0,0,0.26458333,76.396666,123.36604)" />
        <path
           style="fill:#ffffff;stroke-width:0.12626907"
           d="M 16.604516,36.836298 C 14.372463,36.526495 12.425016,35.907676 10.442308,34.878201 5.5330897,32.329202 2.1137253,27.802743 0.92430979,22.27854 c -0.3977913,-1.847529 -0.3977913,-5.271118 0,-7.118648 C 2.5264783,7.7186714 8.1454557,2.2313109 15.657498,0.77180928 17.255797,0.4612786 20.536551,0.46462056 22.160355,0.77843345 29.494589,2.1958323 35.068703,7.5382599 36.782281,14.792606 c 0.296508,1.255252 0.33151,1.657742 0.335975,3.863476 0.0039,1.923868 -0.04544,2.696263 -0.225614,3.532511 -0.366835,1.70257 -0.917467,3.275648 -1.653975,4.725165 -2.568898,5.055839 -7.329308,8.633851 -12.952043,9.734995 -1.253116,0.245408 -4.494431,0.352391 -5.682108,0.187545 z m -3.722292,-3.704434 c 2.774187,-1.291855 2.854281,-5.216753 0.13499,-6.614989 -0.853638,-0.438932 -2.131119,-0.470154 -2.998429,-0.07328 -1.8604243,0.851316 -2.6516972,3.188248 -1.7086177,5.046202 0.8495213,1.673636 2.9128777,2.414697 4.5720567,1.642067 z m 18.210339,-4.943013 c 0.968246,-0.289563 2.119405,-1.224191 2.697249,-2.189906 1.950546,-3.259826 -0.18716,-7.398878 -3.969039,-7.6849 -2.614714,-0.19775 -4.906043,1.600886 -5.381811,4.224591 -0.381475,2.103712 0.774549,4.392659 2.695763,5.337655 1.329124,0.653763 2.506106,0.746711 3.957838,0.31256 z M 22.7917,17.961602 v -7.007933 h -3.977475 -3.977476 v 7.007933 7.007933 h 3.977476 3.977475 z m 2.117988,-11.2695145 0.03455,-2.1781414 h -6.253301 -6.2533 v 2.1255293 c 0,1.1690412 0.03841,2.1639446 0.08537,2.2108966 0.04695,0.046952 2.845391,0.070628 6.218751,0.052612 L 24.87514,8.870229 Z"
           id="path25"
           inkscape:connector-curvature="0"
           transform="matrix(0.26458333,0,0,0.26458333,76.396666,123.36604)" />
        <path
           transform="matrix(0.26458333,0,0,0.26458333,76.396666,123.36604)"
           style="fill:#ffffff;stroke-width:0.12626907"
           d="M 16.209231,36.77973 C 8.348929,35.490754 2.4050535,29.766627 0.86440646,22.002212 0.525756,20.295511 0.55612688,16.880121 0.9252508,15.159892 2.5197224,7.7291755 8.1820119,2.1978263 15.657498,0.7683279 c 1.570853,-0.30038598 4.875655,-0.30059659 6.502857,-4.1416e-4 1.521599,0.28070096 3.463468,0.92875306 4.817332,1.60766856 5.216969,2.6161296 8.670606,7.1038529 9.917546,12.8870497 0.323379,1.499801 0.322904,5.410627 -8.84e-4,6.928984 -0.792599,3.717267 -2.426515,6.747159 -5.074455,9.409928 -2.512173,2.526244 -5.668357,4.230334 -9.230393,4.983688 -1.650645,0.349104 -4.8439,0.446446 -6.380315,0.194498 z m -3.203383,-3.698314 c 1.210105,-0.627243 1.949854,-1.83712 1.954397,-3.196461 0.0053,-1.578885 -0.66441,-2.710368 -1.989216,-3.360928 -1.452093,-0.713064 -2.9997759,-0.388081 -4.1280251,0.866803 -0.9308225,1.035298 -1.1861878,2.370789 -0.7010791,3.666451 0.3508296,0.93702 0.8890504,1.532364 1.8037162,1.99515 0.711117,0.359797 0.872956,0.393166 1.671247,0.344581 0.557511,-0.03393 1.070382,-0.150465 1.38896,-0.315596 z m 17.301354,-4.713763 c 1.102339,-0.203778 2.060636,-0.743793 2.868615,-1.616507 0.982251,-1.060949 1.286835,-1.86866 1.290834,-3.423109 0.0028,-1.089516 -0.03381,-1.277634 -0.399181,-2.050704 -1.570877,-3.323776 -5.812755,-4.013594 -8.303876,-1.350385 -2.976106,3.181699 -0.852884,8.228709 3.602474,8.563269 0.10878,0.0082 0.53229,-0.04699 0.941134,-0.122564 z M 22.7917,17.961602 v -7.007933 h -3.977475 -3.977476 v 7.007933 7.007933 H 18.814225 22.7917 Z M 24.938274,6.6605203 V 4.5139461 h -6.250318 -6.250319 v 2.1465742 2.1465741 h 6.250319 6.250318 z"
           id="path27"
           inkscape:connector-curvature="0" />
      </g>
    </g>
  </g>
</svg>
