<?xml version="1.0" encoding="UTF-8" standalone="no"?>
<!-- Created with Inkscape (http://www.inkscape.org/) -->

<svg
   xmlns:dc="http://purl.org/dc/elements/1.1/"
   xmlns:cc="http://creativecommons.org/ns#"
   xmlns:rdf="http://www.w3.org/1999/02/22-rdf-syntax-ns#"
   xmlns:svg="http://www.w3.org/2000/svg"
   xmlns="http://www.w3.org/2000/svg"
   xmlns:sodipodi="http://sodipodi.sourceforge.net/DTD/sodipodi-0.dtd"
   xmlns:inkscape="http://www.inkscape.org/namespaces/inkscape"
   width="5.3247261mm"
   height="6.4700546mm"
   viewBox="0 0 5.3247261 6.4700546"
   version="1.1"
   id="svg781"
   inkscape:version="0.92.4 (5da689c313, 2019-01-14)"
   sodipodi:docname="Heater.svg">
  <defs
     id="defs775" />
  <sodipodi:namedview
     id="base"
     pagecolor="#ffffff"
     bordercolor="#666666"
     borderopacity="1.0"
     inkscape:pageopacity="0.0"
     inkscape:pageshadow="2"
     inkscape:zoom="0.35"
     inkscape:cx="232.91962"
     inkscape:cy="-110.63027"
     inkscape:document-units="mm"
     inkscape:current-layer="layer1"
     showgrid="false"
     fit-margin-top="0"
     fit-margin-left="0"
     fit-margin-right="0"
     fit-margin-bottom="0"
     inkscape:window-width="1304"
     inkscape:window-height="745"
     inkscape:window-x="-8"
     inkscape:window-y="-8"
     inkscape:window-maximized="1" />
  <metadata
     id="metadata778">
    <rdf:RDF>
      <cc:Work
         rdf:about="">
        <dc:format>image/svg+xml</dc:format>
        <dc:type
           rdf:resource="http://purl.org/dc/dcmitype/StillImage" />
        <dc:title></dc:title>
      </cc:Work>
    </rdf:RDF>
  </metadata>
  <g
     inkscape:label="Layer 1"
     inkscape:groupmode="layer"
     id="layer1"
     transform="translate(-44.206684,-113.09235)">
    <g
       id="use29539"
       transform="matrix(0.26458333,0,0,0.26458333,-24.278784,87.432225)">
      <desc
         id="desc799">Heater</desc>
      <title
         id="title801">Heater</title>
      <path
         inkscape:connector-curvature="0"
         id="path803"
         style="fill:#ffffff;fill-opacity:1;fill-rule:evenodd;stroke:none;stroke-width:0.66862381"
         d="m 261.57546,109.05859 c 0,-3.75298 3.04023,-6.79588 6.79323,-6.79588 3.75299,0 6.79322,3.0429 6.79322,6.79588 0,3.75099 -3.04023,6.79322 -6.79322,6.79322 -3.753,0 -6.79323,-3.04223 -6.79323,-6.79322 z" />
      <g
         transform="matrix(0.66862381,0,0,0.66862381,142.28093,-1940.5551)"
         id="g807">
        <path
           inkscape:connector-curvature="0"
           id="path805"
           style="fill:none;stroke:#000000;stroke-width:0.70875001;stroke-linecap:butt;stroke-linejoin:miter;stroke-miterlimit:10;stroke-dasharray:none;stroke-opacity:1"
           d="m 178.418,3065.152 h 2.543 l 5.078,-4.812 5.586,10.16 4.574,-5.348 h 2.539 m -20.32,0.27 c 0,-5.613 4.547,-10.164 10.16,-10.164 5.613,0 10.16,4.551 10.16,10.164 0,5.609 -4.547,10.16 -10.16,10.16 -5.613,0 -10.16,-4.551 -10.16,-10.16 z" />
      </g>
      <g
         transform="matrix(0.66862381,0,0,0.66862381,142.28093,-1940.5551)"
         id="g811">
        <path
           inkscape:connector-curvature="0"
           id="path809"
           style="fill:none;stroke:#000000;stroke-width:0.70875001;stroke-linecap:butt;stroke-linejoin:miter;stroke-miterlimit:10;stroke-dasharray:none;stroke-opacity:1"
           d="m 204.156,3047.586 -28.898,35.219" />
      </g>
      <g
         transform="matrix(0.66862381,0,0,0.66862381,142.28093,-1940.5551)"
         id="g815">
        <path
           inkscape:connector-curvature="0"
           id="path813"
           style="fill:#000000;fill-opacity:1;fill-rule:evenodd;stroke:#000000;stroke-width:0.70875001;stroke-linecap:butt;stroke-linejoin:miter;stroke-miterlimit:10;stroke-dasharray:none;stroke-opacity:1"
           d="m 181.516,3078.16 -6.258,4.645 3.336,-7.043 z" />
      </g>
    </g>
  </g>
</svg>
