<?xml version="1.0" encoding="UTF-8" standalone="no"?>
<!-- Created with Inkscape (http://www.inkscape.org/) -->

<svg
   xmlns:dc="http://purl.org/dc/elements/1.1/"
   xmlns:cc="http://creativecommons.org/ns#"
   xmlns:rdf="http://www.w3.org/1999/02/22-rdf-syntax-ns#"
   xmlns:svg="http://www.w3.org/2000/svg"
   xmlns="http://www.w3.org/2000/svg"
   xmlns:sodipodi="http://sodipodi.sourceforge.net/DTD/sodipodi-0.dtd"
   xmlns:inkscape="http://www.inkscape.org/namespaces/inkscape"
   width="6.6449556mm"
   height="6.6447535mm"
   viewBox="0 0 6.6449556 6.6447535"
   version="1.1"
   id="svg4125"
   inkscape:version="0.92.4 (5da689c313, 2019-01-14)"
   sodipodi:docname="LiquidRingCompressor.svg">
  <defs
     id="defs4119" />
  <sodipodi:namedview
     id="base"
     pagecolor="#ffffff"
     bordercolor="#666666"
     borderopacity="1.0"
     inkscape:pageopacity="0.0"
     inkscape:pageshadow="2"
     inkscape:zoom="0.35"
     inkscape:cx="-303.15689"
     inkscape:cy="-116.01443"
     inkscape:document-units="mm"
     inkscape:current-layer="layer1"
     showgrid="false"
     inkscape:window-width="1366"
     inkscape:window-height="705"
     inkscape:window-x="-8"
     inkscape:window-y="-8"
     inkscape:window-maximized="1" />
  <metadata
     id="metadata4122">
    <rdf:RDF>
      <cc:Work
         rdf:about="">
        <dc:format>image/svg+xml</dc:format>
        <dc:type
           rdf:resource="http://purl.org/dc/dcmitype/StillImage" />
        <dc:title></dc:title>
      </cc:Work>
    </rdf:RDF>
  </metadata>
  <g
     inkscape:label="Layer 1"
     inkscape:groupmode="layer"
     id="layer1"
     transform="translate(-63.201332,-111.4931)">
    <g
       id="use22121"
       transform="matrix(0.26458333,0,0,0.26458333,6.1567366,141.16301)">
      <g
         inkscape:label="#Liquid ring Compressor"
         id="g4729"
         transform="matrix(1.8953116,0,0,1.8953116,-5.0823221,-152.8764)">
        <desc
           id="desc4695">Liquid ring Compressor</desc>
        <title
           id="title4697">Liquid ring Compressor</title>
        <g
           transform="matrix(0.35277777,0,0,-0.35277777,183.51272,1685.0477)"
           id="g4727">
          <g
             transform="matrix(1.070578,0,0,-1.0705783,-224.49162,6400.7429)"
             id="g4701"
             style="stroke-width:0.93407476">
            <path
               inkscape:connector-curvature="0"
               id="path4699"
               style="fill:#ffffff;fill-opacity:1;fill-rule:evenodd;stroke:#000000;stroke-width:2.10166812;stroke-linecap:butt;stroke-linejoin:miter;stroke-miterlimit:10;stroke-dasharray:none;stroke-opacity:1"
               d="m 33.141013,1591.605 c 0,-9.1207 7.382828,-16.4909 16.491989,-16.4909 9.109161,0 16.491988,7.3702 16.491988,16.4909 0,9.0966 -7.382827,16.492 -16.491988,16.492 -9.109161,0 -16.491989,-7.3954 -16.491989,-16.492 z" />
          </g>
          <g
             transform="matrix(1.070578,0,0,-1.0705783,-224.49162,6400.7429)"
             id="g4705"
             style="stroke-width:0.93407476">
            <path
               inkscape:connector-curvature="0"
               id="path4703"
               style="fill:none;stroke:#000000;stroke-width:0.66202551;stroke-linecap:butt;stroke-linejoin:miter;stroke-miterlimit:10;stroke-dasharray:none;stroke-opacity:1"
               d="m 38.277,1588.133 c 0,0 4.614,-3.192 11.153,3.347" />
          </g>
          <g
             transform="matrix(1.070578,0,0,-1.0705783,-224.49162,6400.7429)"
             id="g4709"
             style="stroke-width:0.93407476">
            <path
               inkscape:connector-curvature="0"
               id="path4707"
               style="fill:none;stroke:#000000;stroke-width:0.66202551;stroke-linecap:butt;stroke-linejoin:miter;stroke-miterlimit:10;stroke-dasharray:none;stroke-opacity:1"
               d="m 39.199,1597.262 c 0,0 0.192,-5.782 10.231,-5.782 0,0 -6.895,5.68 -3.45,11.661" />
          </g>
          <g
             transform="matrix(1.070578,0,0,-1.0705783,-224.49162,6400.7429)"
             id="g4713"
             style="stroke-width:0.93407476">
            <path
               inkscape:connector-curvature="0"
               id="path4711"
               style="fill:none;stroke:#000000;stroke-width:0.66202551;stroke-linecap:butt;stroke-linejoin:miter;stroke-miterlimit:10;stroke-dasharray:none;stroke-opacity:1"
               d="m 60.582,1594.93 c -4.207,4.207 -11.152,-3.45 -11.152,-3.45 0,0 -1.321,8.114 5.476,10.747" />
          </g>
          <g
             transform="matrix(1.070578,0,0,-1.0705783,-224.49162,6400.7429)"
             id="g4717"
             style="stroke-width:0.93407476">
            <path
               inkscape:connector-curvature="0"
               id="path4715"
               style="fill:none;stroke:#000000;stroke-width:0.66202551;stroke-linecap:butt;stroke-linejoin:miter;stroke-miterlimit:10;stroke-dasharray:none;stroke-opacity:1"
               d="m 52.875,1580.227 c 3.855,5.878 -3.445,11.253 -3.445,11.253 0,0 7.707,1.52 10.644,-5.476" />
          </g>
          <g
             transform="matrix(1.070578,0,0,-1.0705783,-224.49162,6400.7429)"
             id="g4721"
             style="stroke-width:0.93407476">
            <path
               inkscape:connector-curvature="0"
               id="path4719"
               style="fill:none;stroke:#000000;stroke-width:0.66202551;stroke-linecap:butt;stroke-linejoin:miter;stroke-miterlimit:10;stroke-dasharray:none;stroke-opacity:1"
               d="m 49.43,1591.48 c 0,0 2.027,-7.3 -5.375,-10.343" />
          </g>
          <g
             transform="matrix(1.070578,0,0,-1.0705783,-224.49162,6400.7429)"
             id="g4725"
             style="stroke-width:0.93407476">
            <path
               inkscape:connector-curvature="0"
               id="path4723"
               style="fill:#ffffff;fill-opacity:1;fill-rule:evenodd;stroke:#000000;stroke-width:0.66202551;stroke-linecap:butt;stroke-linejoin:miter;stroke-miterlimit:10;stroke-dasharray:none;stroke-opacity:1"
               d="m 47.703,1591.594 c 0,-1.067 0.863,-1.926 1.93,-1.926 1.062,0 1.926,0.859 1.926,1.926 0,1.062 -0.864,1.929 -1.926,1.929 -1.067,0 -1.93,-0.867 -1.93,-1.929 z" />
          </g>
        </g>
      </g>
    </g>
  </g>
</svg>
