<?xml version="1.0" encoding="UTF-8" standalone="no"?>
<!-- Created with Inkscape (http://www.inkscape.org/) -->

<svg
   xmlns:dc="http://purl.org/dc/elements/1.1/"
   xmlns:cc="http://creativecommons.org/ns#"
   xmlns:rdf="http://www.w3.org/1999/02/22-rdf-syntax-ns#"
   xmlns:svg="http://www.w3.org/2000/svg"
   xmlns="http://www.w3.org/2000/svg"
   xmlns:sodipodi="http://sodipodi.sourceforge.net/DTD/sodipodi-0.dtd"
   xmlns:inkscape="http://www.inkscape.org/namespaces/inkscape"
   width="6.877779mm"
   height="4.7104506mm"
   viewBox="0 0 6.8777789 4.7104506"
   version="1.1"
   id="svg875"
   inkscape:version="0.92.4 (5da689c313, 2019-01-14)"
   sodipodi:docname="Pump.svg">
  <defs
     id="defs869" />
  <sodipodi:namedview
     id="base"
     pagecolor="#ffffff"
     bordercolor="#666666"
     borderopacity="1.0"
     inkscape:pageopacity="0.0"
     inkscape:pageshadow="2"
     inkscape:zoom="5.6"
     inkscape:cx="24.307994"
     inkscape:cy="39.562189"
     inkscape:document-units="mm"
     inkscape:current-layer="layer1"
     showgrid="false"
     fit-margin-top="0"
     fit-margin-left="0"
     fit-margin-right="0"
     fit-margin-bottom="0"
     inkscape:window-width="1304"
     inkscape:window-height="745"
     inkscape:window-x="-8"
     inkscape:window-y="-8"
     inkscape:window-maximized="1" />
  <metadata
     id="metadata872">
    <rdf:RDF>
      <cc:Work
         rdf:about="">
        <dc:format>image/svg+xml</dc:format>
        <dc:type
           rdf:resource="http://purl.org/dc/dcmitype/StillImage" />
        <dc:title></dc:title>
      </cc:Work>
    </rdf:RDF>
  </metadata>
  <g
     inkscape:label="Layer 1"
     inkscape:groupmode="layer"
     id="layer1"
     transform="translate(-46.453968,-113.21621)">
    <g
       id="use23472"
       transform="matrix(0.26458333,0,0,0.26458333,42.705476,115.26531)">
      <desc
         id="desc890">Pump</desc>
      <title
         id="title892">Pump</title>
      <g
         id="g900">
        <path
           inkscape:connector-curvature="0"
           id="path894"
           style="fill:#ffffff;fill-opacity:1;fill-rule:evenodd;stroke:none;stroke-width:0.66862381"
           d="m 18.500164,1.1580787 c 0,-4.7846574 3.878698,-8.6660282 8.666047,-8.6660282 4.784657,0 8.663356,3.8813708 8.663356,8.6660282 0,4.7853397 -3.878699,8.6633558 -8.663356,8.6633558 -4.787349,0 -8.666047,-3.8780161 -8.666047,-8.6633558 z" />
        <g
           transform="matrix(0.66862381,0,0,0.66862381,-389.41514,-1116.0024)"
           id="g898">
          <path
             inkscape:connector-curvature="0"
             id="path896"
             style="fill:none;stroke:#000000;stroke-width:0.70875001;stroke-linecap:butt;stroke-linejoin:miter;stroke-miterlimit:10;stroke-dasharray:none;stroke-opacity:1"
             d="m 610.082,1670.836 c 0,-7.156 5.801,-12.961 12.961,-12.961 7.156,0 12.957,5.805 12.957,12.961 0,7.156 -5.801,12.957 -12.957,12.957 -7.16,0 -12.961,-5.801 -12.961,-12.957 z m 5.184,10.367 20.734,-10.367 -20.734,-10.367 m -5.184,10.367 h -6.48 m 32.398,0 h 6.48" />
        </g>
      </g>
    </g>
  </g>
</svg>
